<?xml version="1.0" encoding="UTF-8"?>
<svg version="1.1" xmlns="http://www.w3.org/2000/svg" width="1817" height="844">
<path d="M0 0 C7.53010815 6.12744095 12.88047383 12.91987889 14.9921875 22.62109375 C16.33371018 44.21740969 10.07265052 61.95673867 -3.9296875 78.3515625 C-6.0078125 80.62109375 -6.0078125 80.62109375 -8.3359375 82.609375 C-8.88765625 83.27324219 -9.439375 83.93710937 -10.0078125 84.62109375 C-9.61056587 88.43086652 -8.28299716 91.39880104 -6.5234375 94.76953125 C-6.00740967 95.76243164 -5.49138184 96.75533203 -4.9597168 97.77832031 C-4.39808838 98.84018555 -3.83645996 99.90205078 -3.2578125 100.99609375 C-2.67362549 102.10952148 -2.08943848 103.22294922 -1.48754883 104.37011719 C3.34248569 113.51821424 8.39613394 122.52800142 13.5234375 131.51171875 C19.56929723 142.12009355 25.42821991 152.83319448 31.29638672 163.54052734 C32.66126252 166.01994036 34.04013582 168.48974484 35.43359375 170.953125 C42.12208153 182.992403 49.64029124 196.97549889 51.9921875 210.62109375 C88.09203056 194.8712526 123.0124806 177.30597994 154.23095703 152.98974609 C155.91168831 151.68364968 157.60340067 150.393728 159.30078125 149.109375 C177.4544804 135.34150793 194.77106351 120.60696664 211.42919922 105.07080078 C212.99511745 103.61837615 214.57143214 102.17826784 216.15234375 100.7421875 C221.55129039 95.83682497 226.81452543 90.84043072 231.9375 85.64453125 C233.77329723 83.83665489 235.65076799 82.15868879 237.6171875 80.49609375 C241.01490723 77.59823736 244.12209236 74.48183343 247.23925781 71.29052734 C254.37732836 63.9997804 261.58233561 57.44740572 269.9921875 51.62109375 C270.63913574 51.17282227 271.28608398 50.72455078 271.95263672 50.26269531 C281.88013856 43.4661207 292.0726925 37.66020479 302.9921875 32.62109375 C304.12914062 32.08871094 305.26609375 31.55632812 306.4375 31.0078125 C331.05612937 19.95513319 357.76372182 14.47946201 384.6796875 14.37109375 C385.97197266 14.35046875 387.26425781 14.32984375 388.59570312 14.30859375 C389.84416016 14.3034375 391.09261719 14.29828125 392.37890625 14.29296875 C393.50514404 14.28362305 394.63138184 14.27427734 395.79174805 14.26464844 C401.37443931 14.88641434 405.40004977 17.36374533 408.9921875 21.62109375 C410.34811981 25.68889069 410.52294335 29.36777634 409.9921875 33.62109375 C407.92615647 37.60558216 405.78809808 40.25698863 401.9921875 42.62109375 C399.28515625 43.15771484 399.28515625 43.15771484 396.1796875 43.39453125 C395.03169678 43.49403076 393.88370605 43.59353027 392.70092773 43.69604492 C391.47704346 43.79506104 390.25315918 43.89407715 388.9921875 43.99609375 C369.57950672 45.85030221 352.61658735 50.28101124 334.9921875 58.62109375 C334.32880371 58.9341748 333.66541992 59.24725586 332.98193359 59.56982422 C318.77468135 66.4108896 305.74581891 75.54169723 294.33203125 86.40625 C292.285087 88.34384164 290.18353087 90.10302797 287.9921875 91.87109375 C272.0306468 105.80473379 257.3341776 129.73737591 255.828125 150.9296875 C255.25386269 163.35289546 255.099184 174.81436725 263.32421875 184.8671875 C268.94365827 190.77615317 274.6892325 193.2514093 282.90234375 193.95703125 C307.03599703 194.48915734 326.86062014 183.22689666 343.96337891 167.04833984 C364.78959979 146.71402851 374.70896757 121.73349627 381.59765625 93.96875 C385.36029589 79.23813479 385.36029589 79.23813479 389.4921875 76.12109375 C390.08 75.65703125 390.6678125 75.19296875 391.2734375 74.71484375 C395.53896829 72.00041506 400.11991491 72.16223246 404.9921875 72.62109375 C410.55151004 74.61405844 413.57646563 77.66139647 416.11328125 82.96484375 C418.76832674 90.98898122 415.47686343 101.39642535 414.09692383 109.59423828 C410.20487874 132.94650878 408.06868526 161.13328843 421.9921875 181.62109375 C435.21710612 196.25902537 457.96435051 203.37187932 476.9921875 205.62109375 C477.8996875 205.74355469 478.8071875 205.86601562 479.7421875 205.9921875 C545.54832393 213.08034847 614.76547591 181.1666175 669.80273438 148.50244141 C675.50454369 145.13914206 681.24525105 141.84397504 686.9921875 138.55859375 C687.58053375 138.22223907 688.16888 137.8858844 688.77505493 137.53933716 C699.83596136 131.2241594 710.99034299 125.09106112 722.22949219 119.09863281 C724.84710825 117.69868474 727.45538181 116.28265558 730.0625 114.86328125 C780.09978022 87.85070384 837.56791183 65.153296 894.9921875 63.62109375 C896.81363281 63.56115234 896.81363281 63.56115234 898.671875 63.5 C931.87106852 62.93220695 968.46180339 69.15894938 994.6796875 91.05859375 C1000.42417686 96.63840129 1004.1439611 102.61868959 1004.5546875 110.74609375 C1004.12254266 117.82662082 1001.38723267 122.584379 996.3046875 127.43359375 C987.85408159 134.21265124 978.53577242 134.63773087 967.9921875 133.62109375 C957.59853901 132.22774232 947.45575145 129.80970426 937.3671875 126.99609375 C871.75035292 108.95910991 797.84361981 137.91186275 737.9921875 163.62109375 C737.3306366 163.90490906 736.66908569 164.18872437 735.98748779 164.48114014 C722.87112258 170.11410615 709.81909425 175.88951217 696.8046875 181.75390625 C666.58823443 195.36588229 636.26319334 208.59093921 604.9921875 219.62109375 C603.97801758 219.98283691 602.96384766 220.34458008 601.91894531 220.71728516 C590.88452398 224.63084075 579.79660698 228.11546703 568.4296875 230.93359375 C567.0691626 231.27922363 567.0691626 231.27922363 565.68115234 231.63183594 C548.17099467 235.76436665 530.38369967 237.12816504 512.43994141 237.01220703 C509.49204291 236.99609296 506.54551454 237.01220005 503.59765625 237.03125 C465.38910656 237.07377581 423.24311141 229.3488524 394.9921875 201.62109375 C379.9921875 185.69767033 379.9921875 185.69767033 379.9921875 176.62109375 C375.76663904 180.78200667 371.72097552 185.09433992 367.6796875 189.43359375 C365.68852959 191.55757515 363.69531857 193.679606 361.70117188 195.80078125 C360.3722571 197.21626533 359.04839031 198.63648935 357.7265625 200.05859375 C337.61058505 221.04917892 308.46760757 237.45224088 278.9921875 238.62109375 C278.24453125 238.66105469 277.496875 238.70101562 276.7265625 238.7421875 C254.27715352 239.37404173 232.5490729 232.76858776 216.0546875 217.24609375 C204.30132605 204.64072282 199.81552915 190.40906846 199.8046875 173.49609375 C199.79244141 172.51382813 199.78019531 171.5315625 199.76757812 170.51953125 C199.75408533 163.68317928 200.54512176 157.29973257 201.9921875 150.62109375 C200.98542969 151.46929687 199.97867188 152.3175 198.94140625 153.19140625 C188.97662402 161.52578407 178.74751799 169.37731039 168.22753906 176.99560547 C166.13689671 178.51586506 164.05815762 180.0506026 161.984375 181.59375 C153.50473284 187.8976945 144.86952974 193.89090985 135.9921875 199.62109375 C135.25355469 200.10271973 134.51492188 200.5843457 133.75390625 201.08056641 C109.77273804 216.64545813 84.79437579 228.81874304 57.9921875 238.62109375 C57.95254883 239.39485352 57.91291016 240.16861328 57.87207031 240.96582031 C56.07534073 274.46837467 51.23003627 305.74632597 27.9921875 331.62109375 C27.05632812 332.68070313 27.05632812 332.68070313 26.1015625 333.76171875 C9.97229367 350.97530817 -13.60754885 360.4984389 -36.85546875 361.84375 C-53.69543154 362.37211899 -70.63008057 359.04307826 -83.69140625 347.84765625 C-96.47448833 335.56037668 -101.63009685 321.13224503 -102.01464844 303.59423828 C-101.95625455 286.73926084 -93.05336562 271.81032728 -81.7578125 259.87109375 C-76.33269926 254.7452971 -70.33603093 250.53840038 -64.0078125 246.62109375 C-63.4106543 246.24984375 -62.81349609 245.87859375 -62.19824219 245.49609375 C-46.98552749 236.26752749 -25.04834924 226.25228903 -7.0078125 226.62109375 C-12.82040288 214.00894295 -19.01776736 201.70013979 -25.7421875 189.55078125 C-29.05689359 183.56037299 -32.27518087 177.51975344 -35.49130249 171.47610474 C-41.17665024 160.79377625 -46.99156811 150.19760404 -53.06030273 139.72680664 C-53.56634033 138.84629639 -54.07237793 137.96578613 -54.59375 137.05859375 C-55.25963135 135.91197266 -55.25963135 135.91197266 -55.93896484 134.7421875 C-56.96987095 132.69638754 -57.55429627 130.85886334 -58.0078125 128.62109375 C-64.65490599 133.65327516 -70.59420746 139.08557464 -76.4296875 145.03515625 C-79.112309 147.7259069 -81.89409295 150.21431677 -84.78125 152.6796875 C-87.74734735 155.26591624 -90.62402365 157.9437873 -93.5078125 160.62109375 C-98.2739588 165.03634156 -103.07689291 169.38959538 -108.0078125 173.62109375 C-108.49830078 174.04326172 -108.98878906 174.46542969 -109.49414062 174.90039062 C-113.05927444 177.96884701 -116.63144312 181.02894464 -120.20849609 184.08349609 C-121.3686351 185.07488761 -122.52788345 186.06732279 -123.68603516 187.06103516 C-130.79711913 193.16205845 -138.03161818 199.06189351 -145.42578125 204.81640625 C-147.82245868 206.68433755 -150.19839759 208.57446861 -152.55859375 210.48828125 C-180.93011237 233.49190394 -211.10690143 253.85887969 -243.0078125 271.62109375 C-243.73145996 272.02956543 -244.45510742 272.43803711 -245.20068359 272.85888672 C-280.64495272 292.81040474 -325.32585462 309.18778033 -366.171875 298.09765625 C-385.39632156 292.38228025 -402.31612145 279.56279676 -412.1328125 261.89453125 C-434.42471011 219.95932865 -424.89393262 169.44379086 -411.72143555 126.11328125 C-403.19591425 98.69820469 -391.85532062 72.30016884 -379.1953125 46.55859375 C-378.77572266 45.69693604 -378.35613281 44.83527832 -377.92382812 43.94750977 C-372.14397498 32.4318986 -364.9091289 21.0746922 -352.5078125 16.12109375 C-344.4224289 13.58383948 -337.61141386 13.78579703 -330.0078125 17.62109375 C-324.37974044 20.97113664 -320.34383731 27.43488267 -318.36328125 33.640625 C-316.39573088 44.60269136 -320.0593573 53.60002666 -324.0078125 63.62109375 C-340.07318718 104.40891197 -355.37252625 146.11443256 -362.0078125 189.62109375 C-362.19730469 190.69746094 -362.38679688 191.77382813 -362.58203125 192.8828125 C-364.41053166 208.93671058 -365.42703556 227.06657667 -356.3828125 241.12109375 C-349.44514215 249.38022512 -336.6039378 252.51500863 -326.25 253.4921875 C-272.61067034 256.57598171 -224.14685497 227.51319011 -182.0078125 197.62109375 C-181.23469727 197.07324219 -180.46158203 196.52539062 -179.66503906 195.9609375 C-166.46379728 186.57580726 -153.59587742 176.81621981 -141.0078125 166.62109375 C-140.15960938 165.93660156 -139.31140625 165.25210938 -138.4375 164.546875 C-128.18030323 156.21850969 -118.13295924 147.63718241 -108.35546875 138.75 C-106.78979402 137.33021177 -105.21418927 135.9212979 -103.62890625 134.5234375 C-96.97139238 128.63533134 -90.69330732 122.41232772 -84.45849609 116.08398438 C-83.13017111 114.74448197 -81.78278576 113.42395078 -80.43359375 112.10546875 C-77.78242209 109.39025912 -75.40258288 106.56324021 -73.0078125 103.62109375 C-73.39453125 102.68652344 -73.78125 101.75195312 -74.1796875 100.7890625 C-79.862122 86.62775581 -83.4808735 71.92523527 -84.0078125 56.62109375 C-84.04777344 55.821875 -84.08773438 55.02265625 -84.12890625 54.19921875 C-84.6274973 36.24994096 -80.33718002 17.90217535 -67.9453125 4.46875 C-50.79102685 -11.89007482 -19.12336202 -14.0448135 0 0 Z M-28.0078125 19.62109375 C-33.07762525 26.42912801 -33.28907258 32.81347597 -32.58984375 40.98046875 C-31.55401577 47.45960754 -29.71137526 55.91753099 -25.0078125 60.62109375 C-17.18526347 53.41207797 -9.80837481 45.32720887 -8.7890625 34.2421875 C-8.55358923 27.65874737 -9.7002646 23.56520658 -13.8203125 18.30859375 C-19.20956211 14.15117262 -23.12386468 15.3741826 -28.0078125 19.62109375 Z M-9.1328125 253.80859375 C-9.97521484 254.03562988 -10.81761719 254.26266602 -11.68554688 254.49658203 C-29.18607319 259.34778157 -45.75718295 267.76897306 -55.81640625 283.4453125 C-58.92589089 289.1239451 -60.0466306 294.18247857 -59.0078125 300.62109375 C-57.32217089 303.74172395 -55.22563771 306.01218115 -52.0078125 307.62109375 C-39.80391614 308.9193806 -27.19841333 301.15014777 -18.01367188 293.78222656 C-7.44066313 284.97138594 3.56801715 272.74188601 5.9921875 258.62109375 C6.03107099 256.28808442 6.037051 253.95399574 5.9921875 251.62109375 C0.61262137 251.31838504 -3.99138848 252.41467381 -9.1328125 253.80859375 Z " fill="#1562B9" transform="translate(620.0078125,288.37890625)"/>
<path d="M0 0 C7.31498626 6.44962745 10.8872041 13.85776506 11.875 23.5 C12.32764945 33.49310703 10.19503009 41.00854327 4 49 C-3.38472486 56.27552376 -11.00367668 59.3508645 -21.27148438 59.41723633 C-22.27501953 59.40329834 -23.27855469 59.38936035 -24.3125 59.375 C-25.36630859 59.36557373 -26.42011719 59.35614746 -27.50585938 59.34643555 C-47.25577196 58.97202255 -72.99361496 55.5953992 -88.0625 41.5625 C-92.89273312 36.16677617 -94.66719835 30.66045475 -94.40625 23.484375 C-93.29475781 16.68717279 -88.43301156 11.80525988 -83.26171875 7.58984375 C-73.7611254 0.91153375 -62.14185619 -1.43014069 -51 -4 C-49.94425781 -4.25007812 -48.88851562 -4.50015625 -47.80078125 -4.7578125 C-33.23477687 -7.57960325 -12.15701905 -10.09140165 0 0 Z " fill="#0098FE" transform="translate(333,201)"/>
</svg>
